<svg xmlns="http://www.w3.org/2000/svg" version="1.1" xmlns:xlink="http://www.w3.org/1999/xlink" xmlns:svgjs="http://svgjs.dev/svgjs" width="100%" height="100%" viewBox="0 0 1000 600"><rect width="1000" height="600" x="0" y="0" fill="#262223"/><g><rect width="333.3333333333333" height="333.3333333333333" rx="13.333333333333334" ry="13.333333333333334" y="228.36650091508773" fill="#f7c200" transform="matrix(0.6063714599587087,0,0,0.6063714599587089,0,60.463162009836225)" x="206.14427185058594"/><path d="M328.71327354976825 397.4113256574026Q328.71327354976825 368.46586580358166 329.5829962871601 353.00110837933374L329.5829962871601 353.00110837933374L329.4742809449861 353.00110837933374L314.85206742258646 350.9898745491152Q313.6290198231292 347.456625928461 312.9495489345419 343.1895487481325Q312.2700780459545 338.94965040334745 312.2700780459545 334.9271827429104L312.2700780459545 334.9271827429104Q312.2700780459545 331.8831531620391 312.75929708573744 328.2411891992109L312.75929708573744 328.2411891992109Q324.41901753389624 324.32743688094786 343.22677172999397 322.18030887301177Q362.06170476163516 320.0331808650758 379.1571923184927 320.0331808650758L379.1571923184927 320.0331808650758Q393.77940584089237 320.0331808650758 404.29761519622446 322.2618453796423Q414.81582455155655 324.51768872975225 421.9095006284084 332.3995510373655Q429.0303555408038 340.28141334497866 429.0303555408038 355.85488611140056L429.0303555408038 355.85488611140056Q429.0303555408038 361.97012410868666 425.687358768954 369.66173456749544Q422.34436199710433 377.35334502630417 416.9629525594926 384.0936962410906Q411.5543642863373 390.83404745587706 405.73809348002965 394.44883258316173L405.73809348002965 394.44883258316173Q412.99484257014245 395.6990590181625 419.245974745146 399.4769171587081Q425.4971069201496 403.2547752992537 429.4108592384127 409.69615932306175Q433.3517903922193 416.1375433468698 433.3517903922193 424.94348606296177L433.3517903922193 424.94348606296177Q433.3517903922193 436.6847430177511 428.84010369199933 445.1917185428646Q424.3555958273228 453.6986940679782 416.0388721510137 459.2431765188509L416.0388721510137 459.2431765188509Q399.81310733154794 470.0331742296179 370.18817658913974 470.0331742296179L370.18817658913974 470.0331742296179Q358.52845614098095 470.0331742296179 349.505082740541 469.598312860922Q340.45453050455757 469.1906303277696 332.81727771683586 468.02194039939934L332.81727771683586 468.02194039939934Q328.71327354976825 445.87118943145197 328.71327354976825 397.4113256574026L328.71327354976825 397.4113256574026ZM383.0709446367558 391.40480300229046Q385.57139750675725 384.4198422676125 387.3380218170843 373.6842022279325Q389.1046461274114 362.921383352709 389.48514982502036 356.153853302379L389.48514982502036 356.153853302379Q388.9959307852374 355.2841305649872 384.62013826273494 354.65901734748684Q380.21716690468895 354.0339041299865 373.23220617001107 354.0339041299865L373.23220617001107 354.0339041299865Q371.0307204909881 354.0339041299865 365.89392057326774 354.33287132096495L365.89392057326774 354.33287132096495Q365.1057343425064 375.8313302358685 363.58371955207076 392.92681779272607L363.58371955207076 392.92681779272607L373.23220617001107 392.16581039750827L383.0709446367558 391.40480300229046ZM375.54240719120804 445.0014666940601L378.3146484166444 445.0014666940601Q386.33240490197505 445.0014666940601 389.7569381804553 444.3491746410163L389.7569381804553 444.3491746410163Q392.1486757082827 442.9086963572111 394.0240153607838 439.18519588775246Q395.8721761777414 435.46169541829386 396.85061425730714 431.00436638916085Q397.8018735013294 426.57421619557135 397.8018735013294 423.0409675749172L397.8018735013294 423.0409675749172Q396.08960686208934 418.0672406704578 380.6792071089284 418.0672406704578L380.6792071089284 418.0672406704578Q374.1834654140333 418.0672406704578 365.78520523109376 418.90978457230614L365.78520523109376 418.90978457230614Q363.5021830454403 419.20875176328457 362.3334931170701 419.20875176328457L362.3334931170701 419.20875176328457L362.06170476163516 433.1514943970969Q361.9529894194611 435.27144356948935 361.87145291283065 438.04368479492575Q361.76273757065667 440.8159260203621 361.76273757065667 444.2404592988423L361.76273757065667 444.2404592988423Q368.0682274167473 445.0014666940601 375.54240719120804 445.0014666940601L375.54240719120804 445.0014666940601Z " fill="#262223" transform="matrix(0.6063714599587087,0,0,0.6063714599587089,0,60.463162009836225)"/><path d="M652.369755498735 407.98300221309614Q657.7417275334416 407.98300221309614 664.2555680199698 409.0729675534714Q670.7953600622213 410.18888444956985 676.2711383198209 411.72002623723984L676.2711383198209 411.72002623723984L676.2711383198209 408.89130666340884Q676.2711383198209 406.06258708957785 676.1154289854816 402.61103017838957Q675.9856712068655 399.133521711478 675.7261556496333 398.04355637110274L675.7261556496333 398.04355637110274Q674.8957058664903 396.48646302770953 671.0289240637304 394.85151501714665Q667.1361907052474 393.2165670065838 658.390516426522 393.2165670065838L658.390516426522 393.2165670065838Q652.9925928360922 393.2165670065838 647.2832505769837 394.540096348468Q641.5998598735985 395.86362569035225 634.6707944954987 398.04355637110274L634.6707944954987 398.04355637110274Q630.9078189156317 391.8411345532531 628.6759851234348 386.2355985170375Q626.4441513312378 380.6300624808219 626.4441513312378 374.97262333315985L626.4441513312378 374.97262333315985Q626.4441513312378 373.23386909970407 626.7296184441932 371.49511486624834L626.7296184441932 371.49511486624834Q641.4960536507056 359.9985756808617 664.9562600244968 359.9985756808617L664.9562600244968 359.9985756808617Q677.9060863303838 359.9985756808617 687.94933839527 362.9051499218624Q697.9666389044331 365.8376757185863 704.4545278352382 374.22002821718644Q710.9424167660434 382.62833227150986 710.9424167660434 398.04355637110274L710.9424167660434 398.04355637110274Q710.9424167660434 413.0954586905706 707.4130051876854 427.1871534482792Q703.9095451650505 441.27884820598786 703.8057389421577 441.5643153189433L703.8057389421577 441.5643153189433L717.0410323610001 435.9068761712813Q719.6880910447686 438.7355957451123 721.738263946903 442.78403843793467Q723.7884368490375 446.8584326864802 724.333419519225 452.1525500540172L724.333419519225 452.1525500540172Q723.0617932887873 454.87746340495534 718.7797865944559 459.13351854356347Q714.4977799001244 463.3636221264484 708.2953580822748 466.6594697032974Q702.0929362644251 469.9293657244232 695.3195802206646 469.9293657244232L695.3195802206646 469.9293657244232Q687.7676775052075 469.9293657244232 683.8749441467245 465.46569814002925Q680.0081623439646 461.0020305556353 680.0081623439646 453.89130428747296L680.0081623439646 453.89130428747296Q680.0081623439646 449.86881315037385 681.2019339072328 445.768467346105L681.2019339072328 445.768467346105L678.4510690005714 444.93801756296193Q675.9078165396959 459.34113098934927 667.6033187082653 464.6352483568862Q659.2988208768347 469.9293657244232 649.2555688119485 469.9293657244232L649.2555688119485 469.9293657244232Q642.6898252139738 469.9293657244232 636.5652580632938 466.2442448117259Q630.4666424683369 462.5591238990286 626.6258122213003 455.4743491865894Q622.8109335299869 448.4155260298735 622.8109335299869 438.9172566351748L622.8109335299869 438.9172566351748Q622.8109335299869 423.7615480928141 630.3628362454441 415.8722751529551Q637.9406905166245 407.98300221309614 652.369755498735 407.98300221309614L652.369755498735 407.98300221309614ZM662.7503777880231 442.75808688221144Q665.0341146916664 442.29095887919345 668.2002044898993 440.18888286561264Q671.340342732409 438.08680685203177 673.805740526115 435.1802326110311Q676.2711383198209 432.2477068143072 676.7123147671157 429.60064813053873L676.7123147671157 429.60064813053873L676.167332096928 427.4207174497882Q671.340342732409 426.7719285567077 665.8645644748095 426.7719285567077L665.8645644748095 426.7719285567077Q661.219236000353 426.7719285567077 659.4804817668974 427.5245236726811L659.4804817668974 427.5245236726811Q656.5479559701735 430.79441969380684 656.5479559701735 434.816910830906L656.5479559701735 434.816910830906Q656.5479559701735 437.7234850719067 658.0531462021202 440.11102819844297Q659.558336434067 442.472619769256 662.7503777880231 442.75808688221144L662.7503777880231 442.75808688221144ZM737.5687129380674 435.9068761712813Q745.6136952122657 439.09891752523737 750.4406845767846 440.83767175869315Q755.2676739413037 442.57642599214887 761.0548708675818 443.8480522225867Q766.8680193495832 445.1196784530245 772.6033131644149 445.1196784530245L772.6033131644149 445.1196784530245Q775.1725171810137 445.1196784530245 776.262482521389 444.6525504500065L776.262482521389 444.6525504500065Q776.5219980786212 444.2892286698814 776.7555620801302 443.536633553908Q776.9891260816391 442.75808688221144 776.9891260816391 441.92763709906836L776.9891260816391 441.92763709906836Q776.9891260816391 440.11102819844297 774.8870500680583 438.9172566351748L774.8870500680583 438.9172566351748Q771.6171540469326 437.1006477345494 763.2088499926092 433.18196282034313L763.2088499926092 433.18196282034313Q751.7123108072225 427.7061845627436 745.0168094306316 423.398226312689Q738.2953564983176 419.1162196183577 733.7019311353076 412.0054933501953Q729.0825542165744 404.8947670820329 729.0825542165744 394.12487145689647L729.0825542165744 394.12487145689647Q729.0825542165744 378.70964735730354 738.2953564983176 369.341135741221Q747.5081587800609 359.9985756808617 767.4908566869404 359.9985756808617L767.4908566869404 359.9985756808617Q791.3143848408567 359.9985756808617 804.5496782596991 366.20099749871133L804.5496782596991 366.20099749871133Q805.1725155970564 368.8480561824798 805.1725155970564 372.870547319579L805.1725155970564 372.870547319579Q805.1725155970564 380.526256257929 802.8109240262435 388.5193354206809Q800.4233808997071 396.48646302770953 796.6085022083937 400.3272932747461L796.6085022083937 400.3272932747461Q791.3922395080265 398.58853904129035 781.9199216690511 394.74770879425375L781.9199216690511 394.74770879425375Q774.9908562909511 392.02279544331566 770.9164620424056 390.51760521136885Q766.8680193495832 389.01241497942203 763.4943171055645 388.3636260863416L763.4943171055645 388.3636260863416Q761.6517566492159 388.8307540893595 760.5617913088406 390.51760521136885Q759.4718259684654 392.2044563333782 759.4718259684654 394.48819323702156L759.4718259684654 394.48819323702156Q759.4718259684654 396.48646302770953 760.6655975317335 397.8618954810402Q761.8334175392785 399.2373279343709 763.3386077712253 400.0158746060675Q764.843798003172 400.7684697220409 767.6725175770031 402.0660475082019L767.6725175770031 402.0660475082019Q769.1517562532266 402.6888848455592 770.4233824836645 403.20791596002357Q771.6950087141022 403.7009955187648 772.7849740544775 404.1681235217828L772.7849740544775 404.1681235217828Q779.8957003226399 407.1785039856763 784.0219976826319 409.0729675534714Q788.1223434869007 410.9933826769897 791.937222178214 413.6404413607582L791.937222178214 413.6404413607582Q798.9700937792068 418.4674307252772 802.992584916306 424.69580409885003Q807.0150760534051 430.89822591669974 807.0150760534051 438.26846774209434L807.0150760534051 438.26846774209434Q807.0150760534051 448.4933806970431 801.2019275714038 455.9414771896074Q795.4147306451256 463.3636221264484 786.3835892534448 466.73732437046704L786.3835892534448 466.73732437046704Q781.6344545560955 468.4760786039228 776.02891851988 469.25462527561945Q770.4233824836645 470.0331719473161 762.9493344353768 470.0331719473161L762.9493344353768 470.0331719473161Q754.0998539337588 470.0331719473161 744.7313423176762 466.60756659185097Q735.388782257317 463.18196123638586 730.457986669905 455.1629305179108L730.457986669905 455.1629305179108Q730.5358413370747 449.5833460374184 731.9631769018517 445.43109712170315Q733.3645609109057 441.27884820598786 737.5687129380674 435.9068761712813L737.5687129380674 435.9068761712813ZM822.3264939301051 409.17677377636426Q822.3264939301051 366.4864646116668 823.961441940668 350.6041125090559L823.961441940668 350.6041125090559L813.6586743185495 348.7875036084305Q811.478743637799 340.3791995541071 811.478743637799 330.6992692693459L811.478743637799 330.6992692693459Q812.8541760911297 328.98646659161335 816.5912001152734 326.41726257501455Q820.3282241394172 323.87401011413897 825.2849712825523 321.9535949906207Q830.2676699814106 320.0331798671023 835.1984655688225 320.0331798671023L835.1984655688225 320.0331798671023Q847.4216483144593 320.0331798671023 854.2209559139429 325.3272972346393Q861.0202635134267 330.6214146021763 861.0202635134267 343.38958001800063L861.0202635134267 343.38958001800063Q861.0202635134267 349.77366272591286 860.111959063114 362.9570530333088Q859.2036546128013 376.1404433407048 856.7382568190953 394.92936968431627Q854.2728590253894 413.7442475836511 850.1465616653974 434.1681219378255L850.1465616653974 434.1681219378255L851.7036550087905 435.0764263881382Q858.9181874998458 425.1369805461448 865.5877373207135 413.14736180201703Q872.2313355858579 401.1577430578892 876.1500205000641 390.8290238800475L876.1500205000641 390.8290238800475L868.3126506716516 388.9086087565292Q867.2226853312764 382.70618693867954 867.2226853312764 374.22002821718644L867.2226853312764 374.22002821718644L867.2226853312764 370.9501321960607Q870.6742422424646 366.5643192788364 876.7469062816982 363.29442325771066Q882.8195703209318 359.9985756808617 891.8507117126125 359.9985756808617L891.8507117126125 359.9985756808617Q898.3386006434175 359.9985756808617 903.0877353407669 362.4120703631212Q907.8109184823929 364.8255650453807 910.3801224989918 369.1335232954353Q912.9233749598675 373.41552998976664 912.9233749598675 378.9691629145358L912.9233749598675 378.9691629145358Q912.9233749598675 383.17331494169747 911.6517487294296 386.85843585439477Q910.3801224989918 390.5695083228153 907.8109184823929 394.66985412708414L907.8109184823929 394.66985412708414Q901.2451748844182 405.0764279720955 884.9216463345126 424.2286760958321L884.9216463345126 424.2286760958321Q890.3974245921122 431.8843850341821 895.5877357367563 437.54182418184416L895.5877357367563 437.54182418184416Q897.6119570831675 436.5556650643618 899.3766628723464 434.8947654980757Q901.1673202172485 433.2598174875128 903.9960397910796 430.14563080072634L903.9960397910796 430.14563080072634L905.9943095817675 428.0695063428687L917.2053816541988 436.5556650643618Q916.5825443168414 452.7753873913745 910.2244131646526 461.313449224314Q903.8922335681867 469.8515110572535 893.4856597231753 469.8515110572535L893.4856597231753 469.8515110572535Q882.0929267606816 469.8515110572535 876.3316813901267 462.92244567915367Q870.596387575295 455.9674287453306 867.9493288915265 443.30306955239905L867.9493288915265 443.30306955239905Q857.9060768266402 454.1508198447052 850.3022709997367 461.49511011437653Q842.6725136171099 468.8394003840479 840.3109220462968 469.9293657244232L840.3109220462968 469.9293657244232Q835.2763202359921 469.9293657244232 830.7347979844285 468.76154571687823Q826.1673241771417 467.5677741536101 823.961441940668 464.99857013701126L823.961441940668 464.99857013701126Q822.9752828231856 452.04874383112434 822.6379125987837 439.33248152674634Q822.3264939301051 426.59026766664516 822.3264939301051 409.17677377636426L822.3264939301051 409.17677377636426ZM926.7036510488974 415.0937284812585Q926.7036510488974 399.3151826015405 931.9977684164344 386.9103389658412Q937.2918857839713 374.50549533014185 948.3732000777864 367.2390597276402Q959.4545143716015 359.9985756808617 976.0635100344625 359.9985756808617L976.0635100344625 359.9985756808617Q984.7313296460181 359.9985756808617 993.3991492575738 362.0487485829961Q1002.0669688691294 364.0989214851305 1008.0877297969165 368.8480561824798L1008.0877297969165 368.8480561824798Q1013.6413627216857 373.31172376687374 1016.158663626838 380.6560140365451Q1018.6759645319904 388.00030430621644 1018.6759645319904 396.95359103072747L1018.6759645319904 396.95359103072747Q1018.6759645319904 402.8705457356217 1017.6638538587848 409.0729675534714L1017.6638538587848 409.0729675534714Q1016.5738885184096 410.91552800982004 1013.3818471644533 413.87400536226716Q1010.1898058104973 416.8324827147143 1005.907799116166 419.6612022885453Q1001.5998408661114 422.4899218623763 997.6033012847355 424.0470152057695L997.6033012847355 424.0470152057695Q993.7624710376988 424.3065307630018 989.6621252334301 424.3065307630018L989.6621252334301 424.3065307630018Q982.4475927423748 424.3065307630018 975.0513993612569 423.68369342564444Q967.6811575358624 423.0349045325639 962.10157305537 422.23040630514413L962.10157305537 422.23040630514413Q962.8282166156201 429.96396991066376 966.8507077527194 435.7252152812187Q970.8731988898185 441.46050909605043 979.6188731685438 441.46050909605043L979.6188731685438 441.46050909605043Q980.4493229516868 441.46050909605043 982.2659318523122 441.27884820598786L982.2659318523122 441.27884820598786Q987.8455163328046 440.73386553580025 995.2676612696457 438.32037085354074Q1002.7157577622099 435.9068761712813 1010.0859995876044 432.71483481732514L1010.0859995876044 432.71483481732514Q1013.563508054516 436.1923432842367 1015.1984560650789 439.643900195425Q1016.8593556313649 443.12140866233653 1017.4821929687223 449.5833460374184L1017.4821929687223 449.5833460374184Q1014.6534733948913 452.87919361426736 1008.3212937984255 457.6283283116167Q1001.9631626462365 462.37746300896606 992.8541665873861 466.140438588833Q983.7192189728125 469.9293657244232 973.7797731308192 469.9293657244232L973.7797731308192 469.9293657244232Q958.8316770342442 469.9293657244232 948.191539187724 462.68888167764464Q937.5514013412035 455.42244607514294 932.1275261950505 442.9656993279972Q926.7036510488974 430.5349041365746 926.7036510488974 415.0937284812585L926.7036510488974 415.0937284812585ZM986.7295994367062 404.1681235217828L985.4579732062683 394.12487145689647Q984.1863469758305 392.7494390035658 981.175966511937 391.9708923318692Q978.1655860480435 391.1923456601726 974.8697384711944 391.1923456601726L974.8697384711944 391.1923456601726Q972.2226797874259 391.1923456601726 969.5496695479342 391.6594736631905Q966.8507077527194 392.1006501104853 966.3057250825317 392.6715843363961L966.3057250825317 392.6715843363961Q963.1915383957453 398.7701999313529 962.3870401683255 406.5297150925958L962.3870401683255 406.5297150925958L986.7295994367062 404.1681235217828ZM1038.1136797686825 417.74078716502703Q1038.1136797686825 402.8705457356217 1038.5548562159772 390.6473629899849L1038.5548562159772 390.6473629899849L1028.6154103739839 388.9086087565292Q1027.4216388107156 384.36708650496564 1026.9804623634209 380.8895780380541Q1026.513334360403 377.4120695711425 1026.513334360403 373.4933846569363L1026.513334360403 373.4933846569363L1026.6949952504656 371.67677575631086Q1026.9804623634209 370.40514952587307 1026.9804623634209 369.57469974273L1026.9804623634209 369.57469974273L1040.2157557822634 366.6681255017293Q1040.6569322295582 361.0106863540673 1042.291880240121 353.8740085301817Q1043.952779806407 346.7632822620193 1045.7693887070325 343.38958001800063L1045.7693887070325 343.38958001800063Q1048.6759629480332 341.20964933725014 1052.802260308025 340.11968399687487Q1056.902606112294 339.00376710077643 1061.6517408096433 339.00376710077643L1061.6517408096433 339.00376710077643Q1065.6482803910194 339.00376710077643 1069.4372075266094 339.782313772473Q1073.2261346621997 340.56086044416963 1076.0548542360307 341.8324866746075L1076.0548542360307 341.8324866746075Q1076.340321348986 344.9466733613939 1076.340321348986 348.96916449849306L1076.340321348986 348.96916449849306Q1076.340321348986 355.5349080964678 1075.6915324559054 363.8394059278983L1075.6915324559054 363.8394059278983L1091.755545448579 360.9068801311744Q1095.1292476925976 366.745980168899 1095.1292476925976 373.59719087982916L1095.1292476925976 373.59719087982916Q1095.1292476925976 378.3463255771785 1093.987379240776 382.1612042684919Q1092.8455107889542 386.0020345155285 1090.8472409982662 390.8290238800475L1090.8472409982662 390.8290238800475Q1084.8264800704792 391.8411345532531 1074.3161000025748 392.1006501104853L1074.3161000025748 392.1006501104853Q1073.044473772137 406.99684309561377 1068.6586608549128 435.8030699483884L1068.6586608549128 435.8030699483884L1068.217484407618 438.9172566351748L1068.3991452976807 439.09891752523737L1089.8351303250606 432.4293677043697Q1096.5046801459282 438.0089521848621 1097.9579672664286 449.5833460374184L1097.9579672664286 449.5833460374184Q1097.9579672664286 450.2321349304989 1092.0669641172576 455.5781554094823Q1086.1759609680867 460.8982243327425 1077.3264804664684 465.41379502858285Q1068.4769999648504 469.9293657244232 1058.096377675562 469.9293657244232L1058.096377675562 469.9293657244232Q1039.9302886693079 469.9293657244232 1038.7365171060399 447.7667371367929L1038.7365171060399 447.7667371367929Q1038.1136797686825 436.5556650643618 1038.1136797686825 417.74078716502703L1038.1136797686825 417.74078716502703ZM1108.0012193313148 412.91379780050806Q1108.0012193313148 379.1508238045983 1109.7140220090473 350.6041125090559L1109.7140220090473 350.6041125090559L1099.411254386929 348.7875036084305Q1097.2313237061785 340.3791995541071 1097.2313237061785 330.6992692693459L1097.2313237061785 330.6992692693459Q1098.6067561595091 328.98646659161335 1102.3437801836528 326.41726257501455Q1106.0808042077965 323.87401011413897 1111.0375513509316 321.9535949906207Q1116.02025004979 320.0331798671023 1120.9510456372018 320.0331798671023L1120.9510456372018 320.0331798671023Q1132.162117709633 320.0331798671023 1137.6378959672325 325.79442523765726Q1143.113674224832 331.529719052489 1143.113674224832 343.38958001800063L1143.113674224832 343.38958001800063Q1143.113674224832 350.42245161899336 1141.8939511058406 365.05912904688967Q1140.6482764311263 379.69580647478597 1138.3645395274827 393.2944216737534L1138.3645395274827 393.2944216737534L1135.821287066607 408.8134519962392L1138.7278613076078 409.8255626694448L1141.8420479943943 397.7580892581473Q1146.2278609116183 380.8895780380541 1155.10329296896 370.4570526373195Q1164.0046765820246 359.9985756808617 1177.4216308909295 359.9985756808617L1177.4216308909295 359.9985756808617Q1187.4648829558155 359.9985756808617 1193.7970625522814 364.3324854866395Q1200.1292421487472 368.6663952924173 1202.9579617225781 375.72521844913325Q1205.7866812964094 382.8099931615724 1205.7866812964094 391.2961518830655L1205.7866812964094 391.2961518830655Q1205.7866812964094 402.7926910684521 1203.6067506156587 417.0660467162233Q1201.426819934908 431.3394023639945 1197.767650577934 443.7442459996938L1197.767650577934 443.7442459996938Q1194.2122874438528 455.88957407816093 1185.959692723869 462.92244567915367Q1177.7070980038848 469.9293657244232 1165.3801090353552 469.9293657244232L1165.3801090353552 469.9293657244232Q1160.5531196708362 469.9293657244232 1152.9752653996557 468.1127568237977Q1145.3974111284756 466.29614792317227 1136.1846088467323 462.16985056318026L1136.1846088467323 462.16985056318026Q1134.8091763934017 464.45358746682365 1133.1223252713921 466.6594697032974Q1131.435474149383 468.8394003840479 1130.163847918945 469.9293657244232L1130.163847918945 469.9293657244232Q1123.4164434309077 469.9293657244232 1118.848969623621 468.8394003840479Q1114.2814958163342 467.74943504367263 1111.9977589126909 466.50376036895807Q1109.7140220090473 465.2840372499667 1109.7140220090473 464.99857013701126L1109.7140220090473 464.99857013701126Q1108.0012193313148 446.2096437933998 1108.0012193313148 412.91379780050806L1108.0012193313148 412.91379780050806ZM1163.6413548018995 445.84632201327463Q1164.7313201422746 445.84632201327463 1165.0167872552302 445.6646611232121L1165.0167872552302 445.6646611232121Q1168.2866832763557 433.36362371040565 1168.2866832763557 408.34632399322123L1168.2866832763557 408.34632399322123Q1168.2866832763557 404.0643172988899 1167.845506829061 401.4172586151214L1167.845506829061 401.4172586151214Q1165.7434308154802 398.7701999313529 1161.8247459012741 398.7701999313529L1161.8247459012741 398.7701999313529Q1160.5531196708362 399.8601652717282 1153.0531200668256 413.14736180201703Q1145.579072018538 426.4086067765826 1142.023708884457 433.5452846004682L1142.023708884457 433.5452846004682L1142.023708884457 437.9051459619692Q1147.0323591390384 441.38265442888076 1153.598102737013 443.6144882210777Q1160.1897978907111 445.84632201327463 1163.6413548018995 445.84632201327463L1163.6413548018995 445.84632201327463ZM1245.9337380002312 407.98300221309614Q1251.3316615906608 407.98300221309614 1257.8455020771894 409.0729675534714Q1264.3593425637175 410.18888444956985 1269.835120821317 411.72002623723984L1269.835120821317 411.72002623723984L1269.835120821317 408.89130666340884Q1269.835120821317 406.06258708957785 1269.705363042701 402.61103017838957Q1269.5756052640847 399.133521711478 1269.2901381511294 398.04355637110274L1269.2901381511294 398.04355637110274Q1268.4856399237096 396.48646302770953 1264.5929065652265 394.85151501714665Q1260.7261247624667 393.2165670065838 1251.9544989280182 393.2165670065838L1251.9544989280182 393.2165670065838Q1246.5825268933115 393.2165670065838 1240.8731846342032 394.540096348468Q1235.1638423750949 395.86362569035225 1228.234776996995 398.04355637110274L1228.234776996995 398.04355637110274Q1224.497752972851 391.8411345532531 1222.2659191806542 386.2355985170375Q1220.0340853884572 380.6300624808219 1220.0340853884572 374.97262333315985L1220.0340853884572 374.97262333315985Q1220.0340853884572 373.23386909970407 1220.2936009456894 371.49511486624834L1220.2936009456894 371.49511486624834Q1235.085987707925 359.9985756808617 1258.520242525993 359.9985756808617L1258.520242525993 359.9985756808617Q1271.4960203876033 359.9985756808617 1281.5133208967663 362.9051499218624Q1291.5565729616526 365.8376757185863 1298.0444618924578 374.22002821718644Q1304.5063992675396 382.62833227150986 1304.5063992675396 398.04355637110274L1304.5063992675396 398.04355637110274Q1304.5063992675396 413.0954586905706 1301.0029392449048 427.1871534482792Q1297.4994792222699 441.27884820598786 1297.3956729993772 441.5643153189433L1297.3956729993772 441.5643153189433L1310.6309664182195 435.9068761712813Q1313.2780251019879 438.7355957451123 1315.3281980041222 442.78403843793467Q1317.3783709062568 446.8584326864802 1317.9233535764445 452.1525500540172L1317.9233535764445 452.1525500540172Q1316.6517273460065 454.87746340495534 1312.3697206516752 459.13351854356347Q1308.0617624016206 463.3636221264484 1301.8593405837712 466.6594697032974Q1295.6569187659213 469.9293657244232 1288.909514277884 469.9293657244232L1288.909514277884 469.9293657244232Q1281.3316600067037 469.9293657244232 1277.4648782039437 465.46569814002925Q1273.5721448454608 461.0020305556353 1273.5721448454608 453.89130428747296L1273.5721448454608 453.89130428747296Q1273.5721448454608 449.86881315037385 1274.7659164087288 445.768467346105L1274.7659164087288 445.768467346105L1272.0410030577907 444.93801756296193Q1269.471799041192 459.34113098934927 1261.1673012097615 464.6352483568862Q1252.862803378331 469.9293657244232 1242.845502869168 469.9293657244232L1242.845502869168 469.9293657244232Q1236.2797592711931 469.9293657244232 1230.155192120513 466.2442448117259Q1224.0306249698333 462.5591238990286 1220.2157462785199 455.4743491865894Q1216.3749160314833 448.4155260298735 1216.3749160314833 438.9172566351748L1216.3749160314833 438.9172566351748Q1216.3749160314833 423.7615480928141 1223.9527703026636 415.8722751529551Q1231.5306245738436 407.98300221309614 1245.9337380002312 407.98300221309614L1245.9337380002312 407.98300221309614ZM1256.3403118452425 442.75808688221144Q1258.6240487488858 442.29095887919345 1261.7641869913957 440.18888286561264Q1264.9043252339054 438.08680685203177 1267.3697230276111 435.1802326110311Q1269.835120821317 432.2477068143072 1270.302248824335 429.60064813053873L1270.302248824335 429.60064813053873L1269.7572661541474 427.4207174497882Q1264.9043252339054 426.7719285567077 1259.454498532029 426.7719285567077L1259.454498532029 426.7719285567077Q1254.7832185018494 426.7719285567077 1253.0444642683935 427.5245236726811L1253.0444642683935 427.5245236726811Q1250.1378900273928 430.79441969380684 1250.1378900273928 434.816910830906L1250.1378900273928 434.816910830906Q1250.1378900273928 437.7234850719067 1251.6430802593395 440.11102819844297Q1253.1482704912864 442.472619769256 1256.3403118452425 442.75808688221144L1256.3403118452425 442.75808688221144ZM1331.2365016624565 350.6819671762256L1320.0254295900252 348.7875036084305Q1318.6499971366945 343.2079191279381 1318.2088206893998 339.52279821524087Q1317.7416926863818 335.81172574682034 1317.845498909275 330.9847363823013L1317.845498909275 330.9847363823013Q1319.7399624770699 328.51933858859536 1323.8143567256154 326.002037683443Q1327.8627994184378 323.5106883340139 1333.2866745645908 321.7719341005581Q1338.7365012664673 320.0331798671023 1344.5756013041917 320.0331798671023L1344.5756013041917 320.0331798671023Q1355.9683342666856 320.0331798671023 1362.0929014173655 325.79442523765726Q1368.1915170123223 331.529719052489 1368.1915170123223 342.76674268064335L1368.1915170123223 342.76674268064335Q1368.1915170123223 350.78577339911845 1366.8160845589916 368.5625890695244Q1365.4666036613842 386.36535629565356 1362.8973996447855 406.3999573139797Q1360.3541471839096 426.4086067765826 1357.058299607061 441.38265442888076L1357.058299607061 441.38265442888076L1357.2399604971233 441.5643153189433L1370.7607210289211 435.9068761712813Q1377.8714472970835 442.03144332196126 1379.0652188603515 452.1525500540172L1379.0652188603515 452.1525500540172Q1379.0652188603515 452.7753873913745 1374.9389215003596 457.3947643101077Q1370.8385756960909 461.98818967311774 1364.1430743194999 465.9587776987704Q1357.421621387186 469.9293657244232 1348.7538017756303 469.9293657244232L1348.7538017756303 469.9293657244232Q1339.7226603839497 469.9293657244232 1334.117124347734 464.92071546984164Q1328.5115883115184 459.9120652152601 1328.7711038687505 447.7667371367929L1328.7711038687505 447.7667371367929L1328.9527647588131 431.3394023639945Q1329.056570981706 407.98300221309614 1329.4717958732774 389.2719305366543Q1329.887020764849 370.5868104159356 1331.2365016624565 350.6819671762256L1331.2365016624565 350.6819671762256ZM1395.2070865201947 350.6819671762256L1383.9700628920402 348.7875036084305Q1382.6205819944328 343.2079191279381 1382.1534539914148 339.52279821524087Q1381.686325988397 335.81172574682034 1381.7901322112898 330.9847363823013L1381.7901322112898 330.9847363823013Q1383.710547334808 328.51933858859536 1387.7589900276305 326.002037683443Q1391.833384276176 323.5106883340139 1397.257259422329 321.7719341005581Q1402.681134568482 320.0331798671023 1408.5202346062067 320.0331798671023L1408.5202346062067 320.0331798671023Q1419.9389191244238 320.0331798671023 1426.0375347193806 325.79442523765726Q1432.1621018700605 331.529719052489 1432.1621018700605 342.76674268064335L1432.1621018700605 342.76674268064335Q1432.1621018700605 350.78577339911845 1430.7866694167299 368.5625890695244Q1429.4112369633992 386.36535629565356 1426.8679845025235 406.3999573139797Q1424.2987804859247 426.4086067765826 1421.028884464799 441.38265442888076L1421.028884464799 441.38265442888076L1421.2105453548613 441.5643153189433L1434.705354330936 435.9068761712813Q1441.8160805990985 442.03144332196126 1443.0098521623665 452.1525500540172L1443.0098521623665 452.1525500540172Q1443.0098521623665 452.7753873913745 1438.9095063580978 457.3947643101077Q1434.809160553829 461.98818967311774 1428.087707621515 465.9587776987704Q1421.392206244924 469.9293657244232 1412.7243866333686 469.9293657244232L1412.7243866333686 469.9293657244232Q1403.693245241688 469.9293657244232 1398.087709205472 464.92071546984164Q1392.4562216135334 459.9120652152601 1392.7416887264887 447.7667371367929L1392.7416887264887 447.7667371367929L1392.9233496165514 431.3394023639945Q1393.0012042837209 407.98300221309614 1393.4164291752925 389.2719305366543Q1393.831654066864 370.5868104159356 1395.2070865201947 350.6819671762256L1395.2070865201947 350.6819671762256Z " fill="#f7c200" transform="matrix(0.6063714599587087,0,0,0.6063714599587089,0,60.463162009836225)"/></g></svg>